<?xml version="1.0" encoding="UTF-8"?>
<svg version="1.1" xmlns="http://www.w3.org/2000/svg" width="120" height="120">
<path d="M0 0 C2.82868857 1.29603412 4.9701021 2.69189598 7.234375 4.8203125 C7.80800781 5.35527344 8.38164062 5.89023437 8.97265625 6.44140625 C9.55917969 6.99699219 10.14570313 7.55257813 10.75 8.125 C11.35199219 8.68832031 11.95398438 9.25164063 12.57421875 9.83203125 C14.05334151 11.21724146 15.52719641 12.6080729 17 14 C15.68054009 16.8713961 14.17813624 19.0492664 12.125 21.4375 C6.81723867 28.42345057 4.2470852 37.61390133 4.59375 46.3671875 C5.42430388 51.74981555 7.20034356 56.87419283 9 62 C9.99 61.01 10.98 60.02 12 59 C11.7834375 58.39414063 11.566875 57.78828125 11.34375 57.1640625 C8.10298947 47.41177385 7.78691983 38.54550266 12 29 C14.31340497 25.31089021 16.92434324 22.07565676 20 19 C24.37345529 19.09850125 27.23659011 22.56344532 30.25 25.375 C30.80429687 25.87 31.35859375 26.365 31.9296875 26.875 C33.35044576 28.18377731 34.68255865 29.58727201 36 31 C36 34 36 34 34.0625 36.0625 C33.381875 36.701875 32.70125 37.34125 32 38 C30.3925093 41.21498139 30.52685451 44.51298258 31 48 C33.04100726 51.93622829 34.74985925 54.48209259 39 56 C37.98223758 53.2598704 36.98350767 50.97617775 35.3125 48.5625 C33.58535693 45.19045877 33.85899147 43.57516007 35 40 C37.11912421 37.09601497 38.50634623 36.15754907 41.9375 35.0625 C45.65042412 34.98672604 47.12800603 35.6864493 50 38 C52.13272462 40.71437679 51.99745956 42.04826833 51.8125 45.5625 C50.98849619 49.04866995 50.55138445 49.76753861 48 52 C47.28552357 54.10332891 47.28552357 54.10332891 47 56 C52.23878628 53.02310312 52.23878628 53.02310312 55 48 C55.42612836 42.63078267 55.45329671 39.38303044 52 35 C51.34 34.67 50.68 34.34 50 34 C50.37901787 29.46261462 53.64507661 27.06323623 56.8125 24.1875 C57.34681641 23.67251953 57.88113281 23.15753906 58.43164062 22.62695312 C62.3849094 18.99461392 62.3849094 18.99461392 65.23046875 19.01953125 C71.5728291 22.53373092 74.61664389 30.36757725 76.59375 36.98828125 C78.21161334 44.99981605 76.44131895 52.35634662 74 60 C75.485 60.99 75.485 60.99 77 62 C81.62174337 48.83628452 82.6745102 39.08244427 77 26 C75.26988972 23.45114374 73.46691961 21.17492671 71.390625 18.90234375 C70 17 70 17 70 13 C71.28515625 11.35253906 71.28515625 11.35253906 73.0625 9.765625 C74.00996094 8.90517578 74.00996094 8.90517578 74.9765625 8.02734375 C75.64429687 7.44082031 76.31203125 6.85429687 77 6.25 C77.66773437 5.64800781 78.33546875 5.04601562 79.0234375 4.42578125 C80.67376194 2.94048925 82.33254221 1.46599443 84 0 C92.79133985 3.94590991 97.78947079 15.90569435 101.125 24.44140625 C103.30290602 30.8098368 103.25630839 36.80195959 103.3125 43.5 C103.35600586 45.18222656 103.35600586 45.18222656 103.40039062 46.8984375 C103.47765104 57.19190179 101.05892519 66.0409202 95.9375 75 C95.45152344 75.86625 94.96554688 76.7325 94.46484375 77.625 C93.08767487 79.8578498 91.61269787 81.93268404 90 84 C86.31245243 83.50168276 84.39509338 82.89932357 82 80 C83.41862715 77.02088298 85.07649626 74.32548631 86.875 71.5625 C94.29337171 59.07127117 96.02145646 45.39915034 93.26953125 31.2421875 C91.62099271 25.44202335 89.45135595 20.40898562 85.953125 15.48828125 C85 14 85 14 85 12 C84.01 12.66 83.02 13.32 82 14 C83.26309379 18.21031263 84.91059064 21.933157 87 25.77734375 C91.5797938 35.95665106 91.64689432 48.95610926 88.375 59.5625 C83.31592275 72.44341299 83.31592275 72.44341299 78.01953125 74.9296875 C76 75 76 75 74.32421875 73.77734375 C73.78410156 73.17019531 73.24398437 72.56304687 72.6875 71.9375 C69.32828953 68.31653287 65.7875532 65.16917716 62 62 C63.09695205 59.2154294 64.21933236 56.58664286 65.625 53.9375 C68.02722115 48.33640273 68.01545925 41.47823973 66.3203125 35.671875 C65.46181876 33.57557356 65.46181876 33.57557356 64 31 C63.34 31.33 62.68 31.66 62 32 C62.495 33.7015625 62.495 33.7015625 63 35.4375 C64.70919497 42.46006196 65.0324276 48.62791327 61.40234375 55.07421875 C57.44080393 60.51443917 53.61602032 63.67679594 47 65 C46.01 74.24 45.02 83.48 44 93 C43.34 93 42.68 93 42 93 C41.01 83.76 40.02 74.52 39 65 C37.02 64.34 35.04 63.68 33 63 C27.55919502 59.38867761 23.76578403 55.40096712 22 49 C21.3376747 42.99564111 22.32482378 37.75841827 24 32 C23.34 31.67 22.68 31.34 22 31 C18.611506 37.212239 18.13528799 42.99128158 19 50 C19.85958789 52.50806164 20.85690535 54.73765981 22.125 57.0625 C23 59 23 59 23 63 C21.25560337 65.42624916 18.96373995 67.31444564 16.75 69.3125 C16.16347656 69.87517578 15.57695313 70.43785156 14.97265625 71.01757812 C14.39902344 71.54416016 13.82539063 72.07074219 13.234375 72.61328125 C12.44885254 73.33704956 12.44885254 73.33704956 11.64746094 74.07543945 C10 75 10 75 7.89550781 74.75195312 C3.11953921 72.85731334 0.84039267 66.73749897 -1.2734375 62.3671875 C-5.86584473 50.67446271 -5.67106763 37.16558542 -1.16015625 25.4921875 C-0.10449807 23.22447733 1.0335555 21.08541376 2.3125 18.9375 C2.869375 17.968125 3.42625 16.99875 4 16 C3.67 15.01 3.34 14.02 3 13 C2.34 12.67 1.68 12.34 1 12 C0.7215625 12.72574219 0.443125 13.45148437 0.15625 14.19921875 C-1.27285789 17.66094293 -3.01562989 20.90725953 -4.78125 24.20703125 C-10.01915243 36.21055766 -9.5981235 50.8946761 -5.28125 63.08984375 C-3.60611249 66.89465304 -1.63374238 70.39686728 0.6328125 73.87890625 C1.91452058 75.86738479 2.98382848 77.86603981 4 80 C2.25 82 2.25 82 0 84 C-1.32 84 -2.64 84 -4 84 C-13.89046833 72.7598257 -17.19141952 58.93279311 -17.3125 44.5 C-17.34150391 43.37851562 -17.37050781 42.25703125 -17.40039062 41.1015625 C-17.52021599 25.13713724 -10.78052912 11.56934832 0 0 Z " fill="#3B5180" transform="translate(17,13)"/>
<path d="M0 0 C8.79133985 3.94590991 13.78947079 15.90569435 17.125 24.44140625 C19.30290602 30.8098368 19.25630839 36.80195959 19.3125 43.5 C19.34150391 44.62148438 19.37050781 45.74296875 19.40039062 46.8984375 C19.47765104 57.19190179 17.05892519 66.0409202 11.9375 75 C11.45152344 75.86625 10.96554688 76.7325 10.46484375 77.625 C9.08767487 79.8578498 7.61269787 81.93268404 6 84 C2.31245243 83.50168276 0.39509338 82.89932357 -2 80 C-0.58137285 77.02088298 1.07649626 74.32548631 2.875 71.5625 C10.29337171 59.07127117 12.02145646 45.39915034 9.26953125 31.2421875 C7.62099271 25.44202335 5.45135595 20.40898562 1.953125 15.48828125 C1 14 1 14 1 12 C0.01 12.66 -0.98 13.32 -2 14 C-0.73690621 18.21031263 0.91059064 21.933157 3 25.77734375 C7.5797938 35.95665106 7.64689432 48.95610926 4.375 59.5625 C-0.68407725 72.44341299 -0.68407725 72.44341299 -5.98046875 74.9296875 C-8 75 -8 75 -9.67578125 73.77734375 C-10.21589844 73.17019531 -10.75601563 72.56304687 -11.3125 71.9375 C-14.67171047 68.31653287 -18.2124468 65.16917716 -22 62 C-20.90304795 59.2154294 -19.78066764 56.58664286 -18.375 53.9375 C-15.97277885 48.33640273 -15.98454075 41.47823973 -17.6796875 35.671875 C-18.53818124 33.57557356 -18.53818124 33.57557356 -20 31 C-20.66 31.33 -21.32 31.66 -22 32 C-21.67 33.134375 -21.34 34.26875 -21 35.4375 C-19.29080503 42.46006196 -18.9675724 48.62791327 -22.59765625 55.07421875 C-25.72073132 59.36300986 -29.50314918 63.30059186 -34.69140625 64.75390625 C-35.45324219 64.83511719 -36.21507813 64.91632813 -37 65 C-38 64 -38 64 -38.25 61.125 C-38 58 -38 58 -36.8125 56.4375 C-36.214375 55.963125 -35.61625 55.48875 -35 55 C-30.10496404 50.45893761 -30.10496404 50.45893761 -28.75 44.1875 C-28.791657 40.36894171 -29.59201176 38.05629277 -32 35 C-32.66 34.67 -33.32 34.34 -34 34 C-33.62098213 29.46261462 -30.35492339 27.06323623 -27.1875 24.1875 C-26.65318359 23.67251953 -26.11886719 23.15753906 -25.56835938 22.62695312 C-21.6150906 18.99461392 -21.6150906 18.99461392 -18.76953125 19.01953125 C-12.4271709 22.53373092 -9.38335611 30.36757725 -7.40625 36.98828125 C-5.78838666 44.99981605 -7.55868105 52.35634662 -10 60 C-9.01 60.66 -8.02 61.32 -7 62 C-2.37825663 48.83628452 -1.3254898 39.08244427 -7 26 C-8.73011028 23.45114374 -10.53308039 21.17492671 -12.609375 18.90234375 C-14 17 -14 17 -14 13 C-12.71484375 11.35253906 -12.71484375 11.35253906 -10.9375 9.765625 C-10.30585937 9.19199219 -9.67421875 8.61835938 -9.0234375 8.02734375 C-8.35570313 7.44082031 -7.68796875 6.85429687 -7 6.25 C-6.33226563 5.64800781 -5.66453125 5.04601562 -4.9765625 4.42578125 C-3.32623806 2.94048925 -1.66745779 1.46599443 0 0 Z " fill="#3B5180" transform="translate(101,13)"/>
<path d="M0 0 C2.90398503 2.11912421 3.84245093 3.50634623 4.9375 6.9375 C5.01352269 10.66261192 4.02324431 11.92766605 2 15 C0.2784767 20.13541186 -0.44553582 24.98389261 -0.8515625 30.33984375 C-0.91532074 31.10680069 -0.97907898 31.87375763 -1.04476929 32.66395569 C-1.24477378 35.08798598 -1.43504365 37.51266375 -1.625 39.9375 C-1.75977126 41.59184958 -1.89518173 43.24614722 -2.03125 44.90039062 C-2.36155793 48.93303106 -2.68314432 52.96628121 -3 57 C-3.66 57 -4.32 57 -5 57 C-5.08040527 55.97640381 -5.16081055 54.95280762 -5.24365234 53.89819336 C-5.54586549 50.07516585 -5.85749624 46.25295292 -6.171875 42.4309082 C-6.30625399 40.78137382 -6.43812982 39.13163341 -6.56738281 37.48168945 C-6.75437007 35.10047859 -6.95055743 32.72017123 -7.1484375 30.33984375 C-7.20373627 29.61039047 -7.25903503 28.88093719 -7.31600952 28.12937927 C-7.79394756 22.54359394 -8.5467429 17.20679782 -11.6875 12.4375 C-13 10 -13 10 -12.9375 6.9375 C-11.87360528 3.60396321 -10.68431944 2.19626136 -8 0 C-5.02898609 -1.48550695 -3.16565278 -0.82306972 0 0 Z " fill="#F2761B" transform="translate(64,49)"/>
</svg>
