<?xml version="1.0" encoding="UTF-8"?>
<svg version="1.1" xmlns="http://www.w3.org/2000/svg" width="256" height="256">
<path d="M0 0 C0.81726563 0.50917969 1.63453125 1.01835937 2.4765625 1.54296875 C3.66856735 2.17696233 4.86281356 2.80674995 6.05859375 3.43359375 C7.47091193 4.21616305 8.88091407 5.00292106 10.2890625 5.79296875 C11.06894531 6.22843018 11.84882813 6.6638916 12.65234375 7.11254883 C21.20757249 11.91400386 29.66777699 16.87787379 38.1328125 21.8359375 C44.56416083 25.60050772 51.01844091 29.32456862 57.4765625 33.04296875 C66.04980782 37.98292851 74.61471013 42.93675706 83.1640625 47.91796875 C84.08251953 48.45228516 85.00097656 48.98660156 85.94726562 49.53710938 C87.73593396 50.58060593 89.50882694 51.65173464 91.26280212 52.75254822 C94.47846217 54.66817733 94.47846217 54.66817733 98.25672913 55.83973694 C102.81238783 57.56176999 106.56737764 59.53293465 109.4765625 63.54296875 C112.26094668 71.95162609 111.56964656 81.28121396 111.42558193 90.03898549 C111.37988029 93.57740479 111.40956182 97.11535531 111.42755127 100.65391541 C111.44564696 106.59373196 111.40216633 112.53071674 111.32226562 118.4699707 C111.23090059 125.3217666 111.23981331 132.1679419 111.30182719 139.01993948 C111.35912521 145.63235209 111.34274186 152.24268563 111.29404449 158.85510063 C111.2748068 161.65976377 111.28146437 164.46256037 111.30953217 167.26713753 C111.48440752 188.47851136 111.48440752 188.47851136 108.22092628 193.45937347 C104.81466052 196.76580646 100.95819865 198.07633471 96.4765625 199.54296875 C94.26871645 200.76309953 92.08135586 202.02176357 89.92578125 203.33203125 C87.67294568 204.61256257 85.41900481 205.89115093 83.1640625 207.16796875 C80.68785805 208.5751671 78.2128822 209.98451531 75.73828125 211.39453125 C75.12226044 211.74541809 74.50623962 212.09630493 73.87155151 212.45782471 C68.04915896 215.77848706 62.25976713 219.15456273 56.4765625 222.54296875 C50.11992918 226.26588011 43.75248747 229.96805038 37.35546875 233.62109375 C36.75174438 233.96588776 36.14802002 234.31068176 35.52600098 234.66592407 C32.5048548 236.38991379 29.48135789 238.10963005 26.45458984 239.82373047 C21.29587412 242.75028543 16.16469505 245.69999081 11.13671875 248.84765625 C10.35675537 249.33073242 9.57679199 249.81380859 8.77319336 250.31152344 C7.37871159 251.18254544 5.99427415 252.0699797 4.62329102 252.97753906 C1.62987047 254.83897368 0.01576444 255.63236646 -3.515625 255.046875 C-7.02948899 253.289943 -10.4208335 251.3982638 -13.7734375 249.35546875 C-15.28962665 248.4479847 -16.80660638 247.54182069 -18.32421875 246.63671875 C-19.56679443 245.89421875 -19.56679443 245.89421875 -20.83447266 245.13671875 C-25.85011615 242.16394585 -30.90761977 239.26357403 -35.9609375 236.35546875 C-37.06663086 235.71843018 -38.17232422 235.0813916 -39.31152344 234.42504883 C-41.58367832 233.11596218 -43.85597759 231.80712613 -46.12841797 230.49853516 C-52.66652186 226.73251961 -59.20104984 222.9603038 -65.73608398 219.18896484 C-70.75884027 216.2906797 -75.78213954 213.39335321 -80.80786133 210.50021362 C-82.57389272 209.48349677 -84.33971181 208.46641217 -86.10546875 207.44921875 C-88.31077905 206.17896002 -90.51647966 204.90937857 -92.72265625 203.640625 C-110.89830769 193.16809856 -110.89830769 193.16809856 -112.5234375 191.54296875 C-112.6478068 189.90428992 -112.70304577 188.26032319 -112.73117065 186.61717224 C-112.7513324 185.55034714 -112.77149414 184.48352203 -112.79226685 183.3843689 C-112.80909515 182.203638 -112.82592346 181.0229071 -112.84326172 179.80639648 C-112.86428955 178.57064377 -112.88531738 177.33489105 -112.90698242 176.06169128 C-113.09001274 164.6445233 -113.19761917 153.22626085 -113.27912712 141.80795193 C-113.340657 133.36825935 -113.44407226 124.93123932 -113.60182178 116.49278682 C-113.70901143 110.55899576 -113.76619438 104.62593836 -113.78725827 98.69122463 C-113.80131349 95.14706932 -113.83758746 91.60640885 -113.9284935 88.06332207 C-114.45695846 66.56508017 -114.45695846 66.56508017 -111.28943062 61.61420441 C-107.88969603 58.28110633 -104.02166299 56.99468359 -99.5234375 55.54296875 C-97.31501389 54.32388366 -95.1275221 53.06533922 -92.97265625 51.75390625 C-90.71981096 50.47339203 -88.46587071 49.19480264 -86.2109375 47.91796875 C-83.73734113 46.51206555 -81.26498431 45.1039931 -78.79296875 43.6953125 C-77.86955688 43.16929192 -77.86955688 43.16929192 -76.92749023 42.63264465 C-71.06179485 39.28734704 -65.22642208 35.89100922 -59.3984375 32.48046875 C-49.93016488 26.94070704 -40.44654427 21.42847839 -30.9284668 15.97460938 C-25.86058226 13.06746869 -20.81907476 10.13253827 -15.8359375 7.08203125 C-14.52943237 6.29252075 -14.52943237 6.29252075 -13.1965332 5.48706055 C-11.58688124 4.51140371 -9.98574476 3.52149858 -8.39526367 2.51489258 C-3.23989557 -0.58679223 -3.23989557 -0.58679223 0 0 Z " fill="#FBF8F8" transform="translate(129.5234375,0.45703125)"/>
<path d="M0 0 C0.86842529 0.48694336 1.73685059 0.97388672 2.6315918 1.47558594 C3.61957764 2.02851318 4.60756348 2.58144043 5.62548828 3.15112305 C6.68324463 3.74803955 7.74100098 4.34495605 8.83081055 4.95996094 C9.93948486 5.58330322 11.04815918 6.20664551 12.19042969 6.84887695 C21.64857659 12.18353723 31.03326154 17.64046287 40.40112305 23.13183594 C47.85423383 27.49898729 55.33922136 31.81048431 62.82470703 36.12182617 C64.86927088 37.29955496 66.89539592 38.50973481 68.90429688 39.74731445 C71.67861963 41.37265956 74.46267678 42.42942206 77.49755859 43.4831543 C83.03819637 45.63499343 87.92861534 47.80868671 91.51831055 52.70996094 C94.48424331 62.24922175 93.39600854 72.81578203 92.82293701 82.66967773 C92.6270636 86.39525326 92.54149408 90.12327894 92.44604492 93.85253906 C92.243404 101.14505241 91.920154 108.42541527 91.51831055 115.70996094 C90.27742676 115.72454346 89.03654297 115.73912598 87.75805664 115.75415039 C83.13960434 115.81226817 78.52163271 115.88950041 73.90356445 115.97241211 C71.90755026 116.00559807 69.91144365 116.03364962 67.9152832 116.05639648 C65.04037215 116.09005887 62.16630312 116.14238071 59.29174805 116.19824219 C58.40401703 116.20463211 57.51628601 116.21102203 56.60165405 116.21760559 C51.51802753 116.33733894 47.9141706 116.87731161 43.51831055 119.70996094 C40.74479995 123.2485779 40.17648544 126.33219215 39.51831055 130.70996094 C23.21243545 130.0794671 11.6370545 127.20413815 -0.79418945 116.27246094 C-10.55079986 107.75845107 -21.08319535 103.82792543 -33.48168945 100.70996094 C-33.48168945 96.60194521 -31.46316867 94.10327055 -29.29418945 90.77246094 C-28.71314453 89.84143555 -28.71314453 89.84143555 -28.12036133 88.89160156 C-25.25862846 84.45000294 -22.40938248 80.43606604 -17.0246582 79.10058594 C-16.24735352 79.05417969 -15.47004883 79.00777344 -14.66918945 78.95996094 C-13.87899414 78.90324219 -13.08879883 78.84652344 -12.2746582 78.78808594 C-11.68297852 78.76230469 -11.09129883 78.73652344 -10.48168945 78.70996094 C-10.26254883 79.39703125 -10.0434082 80.08410156 -9.81762695 80.79199219 C-9.50051758 81.69304687 -9.1834082 82.59410156 -8.85668945 83.52246094 C-8.55504883 84.41578125 -8.2534082 85.30910156 -7.94262695 86.22949219 C-5.8804694 89.73074899 -4.32595106 90.28268009 -0.48168945 91.70996094 C3.71485438 92.16168096 7.8904199 92.15411927 12.1081543 92.14355469 C13.93498497 92.15141747 13.93498497 92.15141747 15.79872131 92.15943909 C18.36987548 92.16585197 20.94105901 92.16453185 23.51220703 92.15600586 C27.43860294 92.14749822 31.36354269 92.1762671 35.28979492 92.20800781 C37.79174761 92.20962004 40.29370287 92.20904188 42.7956543 92.20605469 C43.96563461 92.21728867 45.13561493 92.22852264 46.34104919 92.24009705 C52.93805856 92.18390158 57.20705385 91.75744005 62.51831055 87.70996094 C65.48307973 83.26280717 64.88657612 79.06761108 64.89331055 73.83496094 C64.91780273 72.84109375 64.94229492 71.84722656 64.9675293 70.82324219 C64.98517026 66.43064318 64.97297895 63.52587274 62.80737305 59.63964844 C58.78223909 56.24644678 55.09319151 55.46005619 49.90527344 55.43530273 C48.25314598 55.42100471 48.25314598 55.42100471 46.56764221 55.40641785 C45.38733932 55.40732925 44.20703644 55.40824066 42.9909668 55.40917969 C41.76929306 55.40489456 40.54761932 55.40060944 39.28892517 55.39619446 C36.70759704 55.39045627 34.12625274 55.38994712 31.54492188 55.39428711 C27.59892151 55.39744644 23.65367135 55.37398231 19.70776367 55.34863281 C17.19799899 55.3463597 14.6882323 55.34565638 12.1784668 55.34667969 C11.00018814 55.33746994 9.82190948 55.32826019 8.60792542 55.31877136 C0.61002619 55.29396133 0.61002619 55.29396133 -6.48168945 58.70996094 C-8.37921616 62.30871848 -9.53978636 65.77816363 -10.48168945 69.70996094 C-11.27833008 69.88011719 -12.0749707 70.05027344 -12.89575195 70.22558594 C-26.80661791 73.40714652 -31.68906859 80.21455932 -39.0871582 91.72949219 C-42.65417201 96.79525129 -45.53711109 97.44308358 -51.48168945 98.70996094 C-51.7240332 98.15566406 -51.96637695 97.60136719 -52.21606445 97.03027344 C-52.5512207 96.30582031 -52.88637695 95.58136719 -53.23168945 94.83496094 C-53.5565332 94.11566406 -53.88137695 93.39636719 -54.21606445 92.65527344 C-55.7589636 90.2837803 -56.88028245 89.76862793 -59.48168945 88.70996094 C-61.69942212 88.38730257 -61.69942212 88.38730257 -64.06665039 88.39111328 C-65.41759796 88.36130875 -65.41759796 88.36130875 -66.7958374 88.3309021 C-67.75951233 88.31935089 -68.72318726 88.30779968 -69.71606445 88.29589844 C-70.70922668 88.27653229 -71.70238892 88.25716614 -72.72564697 88.23721313 C-75.89424075 88.17748772 -79.06287099 88.13105983 -82.23168945 88.08496094 C-84.38144478 88.04677471 -86.53118491 88.0077226 -88.6809082 87.96777344 C-93.9477003 87.87179202 -99.21458409 87.7867239 -104.48168945 87.70996094 C-108.24139859 58.18660392 -108.24139859 58.18660392 -102.57739258 49.93603516 C-97.16296092 45.29370921 -90.63660006 42.80107286 -84.05786133 40.21630859 C-78.50521257 37.87743347 -73.41167729 34.81722364 -68.24258423 31.74850464 C-65.30954705 30.01865267 -62.34487863 28.34472383 -59.3840332 26.66308594 C-52.91309227 22.97019881 -46.47570732 19.22097228 -40.04418945 15.45996094 C-39.07570068 14.89664063 -38.10721191 14.33332031 -37.109375 13.75292969 C-32.21570231 10.90534156 -27.34340816 8.02850016 -22.49731445 5.10058594 C-20.5963763 3.97020351 -18.69533884 2.83998806 -16.79418945 1.70996094 C-15.92673096 1.17467773 -15.05927246 0.63939453 -14.16552734 0.08789062 C-13.35849365 -0.38745117 -12.55145996 -0.86279297 -11.7199707 -1.35253906 C-11.01912354 -1.77664062 -10.31827637 -2.20074219 -9.59619141 -2.63769531 C-5.88176748 -3.78363005 -3.27768072 -1.70381357 0 0 Z " fill="#8F0000" transform="translate(134.481689453125,18.2900390625)"/>
<path d="M0 0 C17.79162997 -0.73005169 31.8103917 2.50747195 45.3125 14.4375 C58.50590352 26.04299017 73.68039124 29.97496193 91 31 C91.226875 32.216875 91.45375 33.43375 91.6875 34.6875 C92.75962573 38.97600291 94.4755157 41.23076233 98 44 C100.76219132 44.89542565 103.32509363 45.1428261 106.21777344 45.20532227 C107.03832214 45.22526749 107.85887085 45.24521271 108.70428467 45.26576233 C109.58046448 45.28247482 110.45664429 45.29918732 111.359375 45.31640625 C112.26375305 45.33718735 113.1681311 45.35796844 114.09991455 45.37937927 C116.98320055 45.4446594 119.8665761 45.50365952 122.75 45.5625 C124.70704044 45.60570571 126.66407188 45.64932065 128.62109375 45.69335938 C133.4139712 45.80031872 138.20693854 45.90164673 143 46 C143.61954677 50.47744269 143.84226345 54.54138265 143 59 C140.16992551 62.34707779 136.66165503 63.93694899 132.75 65.8125 C130.53595204 66.98472131 128.3224312 68.15793865 126.109375 69.33203125 C124.94341797 69.92838379 123.77746094 70.52473633 122.57617188 71.13916016 C117.20203862 73.90519349 111.99090404 76.95680391 106.76089478 79.98361206 C104.40231088 81.34498598 102.03593035 82.6924853 99.66950989 84.04017639 C92.60660729 88.06368842 85.57946343 92.14696685 78.5625 96.25 C77.1086792 97.09498047 77.1086792 97.09498047 75.62548828 97.95703125 C70.73989794 100.79823811 65.87987069 103.67303467 61.05078125 106.609375 C59.15891102 107.73967851 57.26698627 108.86989074 55.375 110 C54.51592041 110.5352832 53.65684082 111.07056641 52.77172852 111.62207031 C51.96791748 112.09741211 51.16410645 112.57275391 50.3359375 113.0625 C49.64032715 113.48660156 48.9447168 113.91070312 48.22802734 114.34765625 C44.1655074 115.53712078 40.94442705 113.48584676 37.34472656 111.6340332 C36.45237305 111.11156006 35.56001953 110.58908691 34.640625 110.05078125 C33.11115234 109.16132813 33.11115234 109.16132813 31.55078125 108.25390625 C30.46152344 107.61324219 29.37226562 106.97257812 28.25 106.3125 C27.09279028 105.63743361 25.93523143 104.96296538 24.77734375 104.2890625 C22.37429418 102.88984195 19.9727608 101.48807065 17.57226562 100.08447266 C12.06213116 96.86550593 6.52986328 93.68490792 1 90.5 C-1.15242207 89.25794821 -3.30476546 88.01576006 -5.45703125 86.7734375 C-9.93155169 84.19175031 -14.40840857 81.61416986 -18.88671875 79.0390625 C-20.59504883 78.05583008 -20.59504883 78.05583008 -22.33789062 77.05273438 C-24.47787488 75.8211516 -26.61844226 74.59058114 -28.75976562 73.36132812 C-30.76881986 72.20452071 -32.76481835 71.02475155 -34.74731445 69.82299805 C-37.20959766 68.44298839 -39.47786688 67.36532067 -42.07104492 66.31176758 C-46.25316639 64.47386745 -50.14281982 62.6732065 -53 59 C-55.39906777 52.14371231 -54.40721064 44.5505144 -53.9375 37.4375 C-53.86217853 35.45533044 -53.79375112 33.47288619 -53.73242188 31.49023438 C-53.56784337 26.65333024 -53.3096571 21.82969802 -53 17 C-51.72882324 16.98541748 -50.45764648 16.97083496 -49.14794922 16.95581055 C-44.41768708 16.89770193 -39.6878947 16.82046952 -34.95800781 16.73754883 C-32.9134892 16.70435859 -30.86888026 16.67630837 -28.82421875 16.65356445 C-25.87981794 16.61991007 -22.93624046 16.56758834 -19.9921875 16.51171875 C-19.0825827 16.50532883 -18.17297791 16.4989389 -17.23580933 16.49235535 C-11.25772031 16.3548311 -6.8024995 15.51258576 -2.1875 11.375 C-0.37463311 7.74926622 -0.24826333 4.00645647 0 0 Z " fill="#730000" transform="translate(83,126)"/>
<path d="M0 0 C0.81726563 0.50917969 1.63453125 1.01835937 2.4765625 1.54296875 C3.66856735 2.17696233 4.86281356 2.80674995 6.05859375 3.43359375 C7.47091193 4.21616305 8.88091407 5.00292106 10.2890625 5.79296875 C11.06894531 6.22843018 11.84882813 6.6638916 12.65234375 7.11254883 C21.20757249 11.91400386 29.66777699 16.87787379 38.1328125 21.8359375 C44.56416083 25.60050772 51.01844091 29.32456862 57.4765625 33.04296875 C66.04980782 37.98292851 74.61471013 42.93675706 83.1640625 47.91796875 C84.08251953 48.45228516 85.00097656 48.98660156 85.94726562 49.53710938 C87.73593396 50.58060593 89.50882694 51.65173464 91.26280212 52.75254822 C94.47846217 54.66817733 94.47846217 54.66817733 98.25672913 55.83973694 C102.81238783 57.56176999 106.56737764 59.53293465 109.4765625 63.54296875 C112.26094668 71.95162609 111.56964656 81.28121396 111.42558193 90.03898549 C111.37988029 93.57740479 111.40956182 97.11535531 111.42755127 100.65391541 C111.44564696 106.59373196 111.40216633 112.53071674 111.32226562 118.4699707 C111.23090059 125.3217666 111.23981331 132.1679419 111.30182719 139.01993948 C111.35912521 145.63235209 111.34274186 152.24268563 111.29404449 158.85510063 C111.2748068 161.65976377 111.28146437 164.46256037 111.30953217 167.26713753 C111.48440752 188.47851136 111.48440752 188.47851136 108.22092628 193.45937347 C104.81466052 196.76580646 100.95819865 198.07633471 96.4765625 199.54296875 C94.26871645 200.76309953 92.08135586 202.02176357 89.92578125 203.33203125 C87.67294568 204.61256257 85.41900481 205.89115093 83.1640625 207.16796875 C80.68785805 208.5751671 78.2128822 209.98451531 75.73828125 211.39453125 C75.12226044 211.74541809 74.50623962 212.09630493 73.87155151 212.45782471 C68.04915896 215.77848706 62.25976713 219.15456273 56.4765625 222.54296875 C50.11992918 226.26588011 43.75248747 229.96805038 37.35546875 233.62109375 C36.75174438 233.96588776 36.14802002 234.31068176 35.52600098 234.66592407 C32.5048548 236.38991379 29.48135789 238.10963005 26.45458984 239.82373047 C21.29587412 242.75028543 16.16469505 245.69999081 11.13671875 248.84765625 C10.35675537 249.33073242 9.57679199 249.81380859 8.77319336 250.31152344 C7.37871159 251.18254544 5.99427415 252.0699797 4.62329102 252.97753906 C1.62987047 254.83897368 0.01576444 255.63236646 -3.515625 255.046875 C-7.02948899 253.289943 -10.4208335 251.3982638 -13.7734375 249.35546875 C-15.28962665 248.4479847 -16.80660638 247.54182069 -18.32421875 246.63671875 C-19.56679443 245.89421875 -19.56679443 245.89421875 -20.83447266 245.13671875 C-25.85011615 242.16394585 -30.90761977 239.26357403 -35.9609375 236.35546875 C-37.06663086 235.71843018 -38.17232422 235.0813916 -39.31152344 234.42504883 C-41.58367832 233.11596218 -43.85597759 231.80712613 -46.12841797 230.49853516 C-52.66652186 226.73251961 -59.20104984 222.9603038 -65.73608398 219.18896484 C-70.75884027 216.2906797 -75.78213954 213.39335321 -80.80786133 210.50021362 C-82.57389272 209.48349677 -84.33971181 208.46641217 -86.10546875 207.44921875 C-88.31077905 206.17896002 -90.51647966 204.90937857 -92.72265625 203.640625 C-110.89830769 193.16809856 -110.89830769 193.16809856 -112.5234375 191.54296875 C-112.6478068 189.90428992 -112.70304577 188.26032319 -112.73117065 186.61717224 C-112.7513324 185.55034714 -112.77149414 184.48352203 -112.79226685 183.3843689 C-112.80909515 182.203638 -112.82592346 181.0229071 -112.84326172 179.80639648 C-112.86428955 178.57064377 -112.88531738 177.33489105 -112.90698242 176.06169128 C-113.09001274 164.6445233 -113.19761917 153.22626085 -113.27912712 141.80795193 C-113.340657 133.36825935 -113.44407226 124.93123932 -113.60182178 116.49278682 C-113.70901143 110.55899576 -113.76619438 104.62593836 -113.78725827 98.69122463 C-113.80131349 95.14706932 -113.83758746 91.60640885 -113.9284935 88.06332207 C-114.45695846 66.56508017 -114.45695846 66.56508017 -111.28943062 61.61420441 C-107.88969603 58.28110633 -104.02166299 56.99468359 -99.5234375 55.54296875 C-97.31501389 54.32388366 -95.1275221 53.06533922 -92.97265625 51.75390625 C-90.71981096 50.47339203 -88.46587071 49.19480264 -86.2109375 47.91796875 C-83.73734113 46.51206555 -81.26498431 45.1039931 -78.79296875 43.6953125 C-77.86955688 43.16929192 -77.86955688 43.16929192 -76.92749023 42.63264465 C-71.06179485 39.28734704 -65.22642208 35.89100922 -59.3984375 32.48046875 C-49.93016488 26.94070704 -40.44654427 21.42847839 -30.9284668 15.97460938 C-25.86058226 13.06746869 -20.81907476 10.13253827 -15.8359375 7.08203125 C-14.52943237 6.29252075 -14.52943237 6.29252075 -13.1965332 5.48706055 C-11.58688124 4.51140371 -9.98574476 3.52149858 -8.39526367 2.51489258 C-3.23989557 -0.58679223 -3.23989557 -0.58679223 0 0 Z M-8.1015625 12.89453125 C-9.45254028 13.66567261 -9.45254028 13.66567261 -10.83081055 14.45239258 C-11.80187744 15.01853271 -12.77294434 15.58467285 -13.7734375 16.16796875 C-14.7941333 16.75408936 -15.8148291 17.34020996 -16.86645508 17.9440918 C-20.09148147 19.80017773 -23.30851947 21.66943574 -26.5234375 23.54296875 C-27.50554199 24.11450684 -28.48764648 24.68604492 -29.49951172 25.27490234 C-33.39763592 27.54513727 -37.29393959 29.81842157 -41.18652344 32.09814453 C-48.93541324 36.63307698 -56.72260927 41.09831703 -64.5234375 45.54296875 C-73.77549476 50.81653886 -83.00827852 56.12104454 -92.2109375 61.48046875 C-93.23896484 62.07794922 -94.26699219 62.67542969 -95.32617188 63.29101562 C-96.26138672 63.83693359 -97.19660156 64.38285156 -98.16015625 64.9453125 C-98.98217529 65.42476318 -99.80419434 65.90421387 -100.65112305 66.39819336 C-102.46589928 67.4072905 -102.46589928 67.4072905 -103.5234375 68.54296875 C-103.63874729 70.05965836 -103.68524345 71.581637 -103.70425415 73.10258484 C-103.71863525 74.08815872 -103.73301636 75.0737326 -103.74783325 76.08917236 C-103.75837738 77.17953796 -103.76892151 78.26990356 -103.77978516 79.39331055 C-103.79438782 80.53474014 -103.80899048 81.67616974 -103.82403564 82.85218811 C-103.95008156 93.3910222 -104.02020391 103.93064237 -104.07187843 114.47009563 C-104.11077423 122.26157154 -104.17908451 130.05160001 -104.28642619 137.84244031 C-104.36813494 143.98004115 -104.40057817 150.1170625 -104.41627121 156.25516701 C-104.43039168 158.8655878 -104.46008947 161.47597207 -104.50557327 164.08603477 C-104.56614659 167.74043994 -104.57031533 171.39085154 -104.56103516 175.0456543 C-104.59182159 176.12589874 -104.62260803 177.20614319 -104.65432739 178.31912231 C-104.6279048 183.99878876 -104.6279048 183.99878876 -101.54690266 188.5262394 C-99.26350375 190.0685124 -96.99924783 191.33977757 -94.5234375 192.54296875 C-93.6152124 193.08824219 -92.7069873 193.63351563 -91.77124023 194.1953125 C-91.00755127 194.61941406 -90.2438623 195.04351562 -89.45703125 195.48046875 C-88.13022339 196.2226062 -88.13022339 196.2226062 -86.77661133 196.97973633 C-85.84743896 197.49560303 -84.9182666 198.01146973 -83.9609375 198.54296875 C-75.87405606 203.07237954 -67.83173195 207.66712874 -59.8359375 212.35546875 C-53.36880069 216.14511495 -46.89183881 219.91560887 -40.3828125 223.6328125 C-39.78068436 223.9770929 -39.17855621 224.32137329 -38.55818176 224.67608643 C-35.54023129 226.3997075 -32.51750183 228.11392045 -29.48510742 229.81201172 C-24.34173434 232.70317031 -19.29016109 235.6186621 -14.46484375 239.0234375 C-7.50430791 244.15716473 -7.50430791 244.15716473 0.76953125 245.078125 C3.90158258 243.60752025 6.54078111 241.9776784 9.35400391 239.98828125 C12.68330747 237.72126065 16.19064972 235.77976597 19.68676758 233.78344727 C22.80617716 231.99738423 25.90458469 230.17886144 29 228.3515625 C35.42829976 224.56397796 41.88587745 220.82878629 48.3515625 217.10546875 C49.42140381 216.48857178 50.49124512 215.8716748 51.59350586 215.23608398 C56.62422827 212.33572812 61.65677586 209.43859314 66.69268799 206.54725647 C68.43432717 205.54703426 70.1754894 204.54598683 71.91650391 203.54467773 C74.08058695 202.30033782 76.24554996 201.05752632 78.41162109 199.81665039 C80.36457833 198.69312409 82.30295553 197.54368565 84.22235107 196.36373901 C87.4765625 194.54296875 87.4765625 194.54296875 90.83615112 193.3653717 C94.88361736 191.67753819 97.92223514 190.18442046 100.4765625 186.54296875 C103.20446702 178.28723266 102.57813176 169.02888728 102.58984375 160.44140625 C102.62656892 157.84075795 102.66551867 155.2401402 102.70658875 152.63955688 C102.78042623 147.19029156 102.79218081 141.74312361 102.77563477 136.29345703 C102.75817753 130.02395113 102.87739933 123.76735856 103.06246787 117.50084817 C103.23497246 111.43838653 103.27219897 105.3819902 103.25981712 99.31721878 C103.2714039 96.75493572 103.32130159 94.19250992 103.41143227 91.63178635 C103.86711888 79.75075691 103.86711888 79.75075691 100.4765625 68.54296875 C94.56928727 62.47677717 86.95729572 59.03810997 79.26303673 55.75839615 C75.74359187 54.22325555 72.56482514 52.38373047 69.2890625 50.38671875 C67.3518372 49.27165803 65.41434465 48.15706148 63.4765625 47.04296875 C55.12818939 42.2351105 46.79477124 37.40281419 38.4765625 32.54296875 C36.52345874 31.40491147 34.57033355 30.26689095 32.6171875 29.12890625 C28.79066218 26.89822444 24.97087907 24.6566346 21.15661621 22.40509033 C18.76435285 20.99515463 16.36793457 19.59238651 13.97070312 18.19091797 C12.26075587 17.18802337 10.55609678 16.17612973 8.8515625 15.1640625 C7.81515625 14.55949219 6.77875 13.95492188 5.7109375 13.33203125 C4.79538086 12.79271973 3.87982422 12.2534082 2.93652344 11.69775391 C-1.45990532 9.63392818 -4.15270238 10.61721024 -8.1015625 12.89453125 Z " fill="#8F0000" transform="translate(129.5234375,0.45703125)"/>
<path d="M0 0 C4.8923011 3.90825766 8.6310564 7.9920284 12.4765625 12.953125 C14.29717287 15.15138519 15.93618508 16.91425517 18.0234375 18.796875 C23.26445493 23.75497764 26.18641109 27.52515584 26.6953125 34.94140625 C26.80020013 40.64834638 26.52069242 46.31753433 26 52 C24.75911621 52.01458252 23.51823242 52.02916504 22.23974609 52.04418945 C17.62129379 52.10230723 13.00332216 52.17953947 8.38525391 52.26245117 C6.38923971 52.29563713 4.39313311 52.32368868 2.39697266 52.34643555 C-0.4779384 52.38009793 -3.35200743 52.43241977 -6.2265625 52.48828125 C-7.11429352 52.49467117 -8.00202454 52.5010611 -8.91665649 52.50764465 C-14.00028302 52.62737801 -17.60413995 53.16735067 -22 56 C-24.7735106 59.53861697 -25.34182511 62.62223121 -26 67 C-42.30587509 66.36950616 -53.88125604 63.49417721 -66.3125 52.5625 C-76.06911041 44.04849013 -86.6015059 40.11796449 -99 37 C-99 32.89198427 -96.98147922 30.39330961 -94.8125 27.0625 C-94.42513672 26.44181641 -94.03777344 25.82113281 -93.63867188 25.18164062 C-90.776939 20.740042 -87.92769303 16.72610511 -82.54296875 15.390625 C-81.37701172 15.32101563 -81.37701172 15.32101563 -80.1875 15.25 C-79.00220703 15.16492188 -79.00220703 15.16492188 -77.79296875 15.078125 C-76.90544922 15.03945312 -76.90544922 15.03945312 -76 15 C-75.78085938 15.68707031 -75.56171875 16.37414062 -75.3359375 17.08203125 C-75.01882812 17.98308594 -74.70171875 18.88414063 -74.375 19.8125 C-74.07335937 20.70582031 -73.77171875 21.59914063 -73.4609375 22.51953125 C-71.39877995 26.02078805 -69.8442616 26.57271915 -66 28 C-61.80345616 28.45172002 -57.62789065 28.44415834 -53.41015625 28.43359375 C-51.58332558 28.44145653 -51.58332558 28.44145653 -49.71958923 28.44947815 C-47.14843507 28.45589103 -44.57725154 28.45457091 -42.00610352 28.44604492 C-38.07970761 28.43753729 -34.15476785 28.46630616 -30.22851562 28.49804688 C-27.72656293 28.49965911 -25.22460768 28.49908094 -22.72265625 28.49609375 C-20.96768578 28.51294472 -20.96768578 28.51294472 -19.17726135 28.53013611 C-12.58025199 28.47394065 -8.31125669 28.04747911 -3 24 C-0.87719437 20.81579155 -0.71980463 19.79462745 -0.5859375 16.11328125 C-0.54726562 15.17548828 -0.50859375 14.23769531 -0.46875 13.27148438 C-0.4378125 12.29501953 -0.406875 11.31855469 -0.375 10.3125 C-0.33632812 9.32443359 -0.29765625 8.33636719 -0.2578125 7.31835938 C-0.16354133 4.87909293 -0.07793782 2.43983405 0 0 Z " fill="#730000" transform="translate(200,82)"/>
<path d="M0 0 C1.10594859 0.93395843 2.20988159 1.87030387 3.31298828 2.80761719 C3.92796173 3.32878113 4.54293518 3.84994507 5.17654419 4.38690186 C7.94089857 6.83235455 10.4058709 9.51169263 12.875 12.25 C13.39255859 12.8171875 13.91011719 13.384375 14.44335938 13.96875 C18.20627794 18.09912292 21.93798607 22.25786194 25.66796875 26.41796875 C30.39809723 31.65517968 35.20553976 36.82174307 40 42 C46.25946595 48.7605364 52.50319551 55.5299855 58.64453125 62.3984375 C60.41834044 64.35757003 62.20563306 66.29757917 64.01171875 68.2265625 C69.35801588 73.94262048 74.47592098 79.59088805 79 86 C75.39189563 84.64356979 72.13663601 83.02706822 68.80859375 81.0859375 C67.79555176 80.4978833 66.78250977 79.9098291 65.73876953 79.30395508 C64.64935059 78.6673999 63.55993164 78.03084473 62.4375 77.375 C60.09021147 76.01107984 57.74257981 74.64776599 55.39453125 73.28515625 C54.48631622 72.75745888 54.48631622 72.75745888 53.55975342 72.21910095 C48.71057344 69.40416917 43.84663674 66.61590111 38.96617126 63.85554504 C35.99412748 62.17279365 33.03775467 60.47050076 30.10620117 58.71801758 C24.788645 55.56128319 19.66850241 52.75128338 13.7890625 50.765625 C3.03043646 46.73688246 3.03043646 46.73688246 0 41 C-3.00591231 27.86436118 -1.17983145 13.28308704 0 0 Z " fill="#8E0000" transform="translate(30,144)"/>
<path d="M0 0 C2.3664856 -0.36076355 2.3664856 -0.36076355 5.36767578 -0.34057617 C6.48868683 -0.34034958 7.60969788 -0.34012299 8.76467896 -0.33988953 C9.97928802 -0.32440567 11.19389709 -0.30892181 12.4453125 -0.29296875 C14.30553543 -0.28660149 14.30553543 -0.28660149 16.20333862 -0.28010559 C19.50135463 -0.26613216 22.7989335 -0.23917361 26.09680176 -0.20599365 C29.46161542 -0.17531238 32.82649304 -0.16160446 36.19140625 -0.14648438 C42.79444271 -0.1133473 49.39718558 -0.06309697 56 0 C57.57977708 3.15955417 57.18447084 6.53463817 57.1875 10 C57.19974609 10.73734375 57.21199219 11.4746875 57.22460938 12.234375 C57.22987395 14.15770058 57.12203447 16.08054263 57 18 C54.41028427 20.58971573 53.3592588 20.25748217 49.75585938 20.2746582 C48.11405701 20.28895622 48.11405701 20.28895622 46.43908691 20.30354309 C45.25262573 20.30263168 44.06616455 20.30172028 42.84375 20.30078125 C41.02393616 20.30720894 41.02393616 20.30720894 39.1673584 20.31376648 C36.59839503 20.31951792 34.02941537 20.32000409 31.46044922 20.31567383 C27.51632097 20.31251308 23.5729417 20.33596693 19.62890625 20.36132812 C17.13802179 20.36360083 14.64713529 20.36430475 12.15625 20.36328125 C10.37655823 20.37709587 10.37655823 20.37709587 8.56091309 20.39118958 C7.46637817 20.38496078 6.37184326 20.37873199 5.24414062 20.37231445 C3.79424744 20.37325859 3.79424744 20.37325859 2.31506348 20.3742218 C1.55109253 20.25072861 0.78712158 20.12723541 0 20 C-2.45281911 16.32077133 -2.26823919 14.37740649 -2.25 10 C-2.25515625 8.7625 -2.2603125 7.525 -2.265625 6.25 C-2 3 -2 3 0 0 Z " fill="#8F0000" transform="translate(134,82)"/>
<path d="M0 0 C6.10559655 -0.02290553 12.21104516 -0.04283367 18.31665039 -0.05493164 C20.39543156 -0.05997288 22.47420916 -0.06680574 24.55297852 -0.07543945 C27.53402586 -0.08751422 30.51502649 -0.09323024 33.49609375 -0.09765625 C34.89921059 -0.10539818 34.89921059 -0.10539818 36.33067322 -0.11329651 C37.19149002 -0.11337204 38.05230682 -0.11344757 38.93920898 -0.11352539 C40.08171364 -0.11685631 40.08171364 -0.11685631 41.24729919 -0.12025452 C43 0 43 0 44 1 C44.0983721 2.33043625 44.13078592 3.66593344 44.1328125 5 C44.13474609 6.2065625 44.13474609 6.2065625 44.13671875 7.4375 C44.13285156 8.283125 44.12898438 9.12875 44.125 10 C44.13080078 11.2684375 44.13080078 11.2684375 44.13671875 12.5625 C44.13542969 13.366875 44.13414063 14.17125 44.1328125 15 C44.13168457 15.7425 44.13055664 16.485 44.12939453 17.25 C44 19 44 19 43 20 C41.64905018 20.09268999 40.29332909 20.11747326 38.93920898 20.11352539 C38.07839218 20.11344986 37.21757538 20.11337433 36.33067322 20.11329651 C35.39526199 20.10813522 34.45985077 20.10297394 33.49609375 20.09765625 C32.54307877 20.0962413 31.59006378 20.09482635 30.60816956 20.09336853 C27.55124835 20.08775152 24.49439923 20.07519616 21.4375 20.0625 C19.37044376 20.05748719 17.30338638 20.05292391 15.23632812 20.04882812 C10.15750167 20.03862558 5.07883194 20.01905356 0 20 C0 13.4 0 6.8 0 0 Z " fill="#8F0000" transform="translate(30,114)"/>
<path d="M0 0 C1.77206192 0.00015919 3.54412846 0.00585754 5.31616211 0.01586914 C6.24698105 0.01728409 7.17779999 0.01869904 8.13682556 0.02015686 C11.12241777 0.02577367 14.10793615 0.03832899 17.09350586 0.05102539 C19.11238499 0.05603823 21.13126529 0.06060151 23.15014648 0.06469727 C28.11048456 0.07489952 33.07066216 0.09447157 38.03100586 0.11352539 C38.03100586 6.71352539 38.03100586 13.31352539 38.03100586 20.11352539 C32.22854793 20.13644994 26.42624639 20.15637259 20.6237793 20.16845703 C18.64883899 20.17349349 16.67390243 20.1803229 14.69897461 20.18896484 C11.86432981 20.20106047 9.0297342 20.20676049 6.19506836 20.21118164 C5.30856598 20.21634293 4.4220636 20.22150421 3.50869751 20.2268219 C-2.74125073 20.2273971 -2.74125073 20.2273971 -4.96899414 19.11352539 C-4.99583401 16.13429946 -5.01575451 13.15531244 -5.03149414 10.17602539 C-5.03987305 9.32588867 -5.04825195 8.47575195 -5.05688477 7.59985352 C-5.06010742 6.7909668 -5.06333008 5.98208008 -5.06665039 5.14868164 C-5.07188721 4.39981689 -5.07712402 3.65095215 -5.08251953 2.87939453 C-4.85652649 -0.63589076 -3.66109416 0.10471851 0 0 Z " fill="#8F0000" transform="translate(187.968994140625,142.886474609375)"/>
</svg>
